<?xml version="1.0" standalone="no"?>
<!DOCTYPE svg PUBLIC "-//W3C//DTD SVG 20010904//EN"
 "http://www.w3.org/TR/2001/REC-SVG-20010904/DTD/svg10.dtd">
<svg version="1.0" xmlns="http://www.w3.org/2000/svg"
 width="1004.000000pt" height="1004.000000pt" viewBox="0 0 1004.000000 1004.000000"
 preserveAspectRatio="xMidYMid meet">
<metadata>
Created by potrace 1.14, written by Peter Selinger 2001-2017
</metadata>
<g transform="translate(0.000000,1004.000000) scale(0.100000,-0.100000)"
fill="#000000" stroke="none">
<path d="M5047 9014 c-1 -1 -41 -4 -89 -8 -627 -46 -1186 -347 -1664 -896 -21
-24 -47 -54 -57 -65 -121 -133 -400 -548 -530 -785 -16 -30 -33 -59 -37 -65
-21 -28 -145 -272 -408 -805 -263 -531 -376 -736 -555 -1005 -274 -411 -523
-652 -801 -774 -94 -41 -231 -84 -301 -95 -22 -3 -51 -8 -65 -11 -14 -2 -50
-7 -80 -10 -246 -22 -363 -78 -422 -203 -32 -69 -32 -236 0 -303 61 -130 161
-178 359 -174 229 6 511 74 743 181 52 24 102 48 110 53 8 6 33 20 55 32 249
134 530 397 766 714 59 80 184 265 215 320 6 11 53 92 104 180 50 88 179 338
287 555 240 485 347 700 383 765 15 28 49 91 75 140 27 50 73 130 102 179 29
49 53 90 53 93 0 2 9 16 19 31 10 15 49 74 86 132 82 127 216 310 298 405 81
94 258 270 334 332 83 69 241 172 338 222 153 78 429 168 576 186 30 4 56 8
59 10 26 16 332 24 455 12 422 -41 859 -234 1220 -538 101 -85 289 -252 325
-289 8 -9 67 -60 130 -114 63 -54 128 -110 144 -124 47 -41 206 -151 278 -193
142 -83 300 -130 441 -131 230 0 372 92 649 427 116 141 203 207 262 201 37
-4 87 -55 146 -147 46 -71 130 -229 130 -244 0 -3 23 -54 51 -113 149 -309
317 -463 506 -464 170 -1 283 104 298 278 9 103 -17 176 -115 322 -62 93 -190
326 -190 346 0 2 -43 91 -95 199 -52 107 -97 213 -101 235 -4 26 0 60 12 98 9
33 18 93 18 134 1 66 -3 84 -31 141 -99 201 -322 255 -458 112 -36 -37 -105
-145 -105 -163 0 -5 -11 -17 -25 -26 -33 -21 -37 -18 -143 126 -146 199 -230
260 -365 266 -129 5 -256 -58 -302 -150 -44 -88 -33 -173 49 -399 74 -204 72
-262 -14 -359 -84 -97 -225 -137 -334 -96 -90 35 -158 87 -376 288 -121 111
-191 174 -274 245 -32 28 -64 56 -72 63 -77 73 -452 353 -499 371 -5 2 -37 21
-70 41 -222 134 -553 248 -825 284 -180 24 -234 28 -458 30 -117 1 -214 1
-215 0z"/>
<path d="M5262 8031 c-67 -23 -133 -86 -164 -155 -18 -42 -22 -69 -23 -151 0
-93 2 -104 33 -167 33 -66 84 -124 232 -264 36 -33 80 -77 98 -97 31 -35 95
-149 118 -212 6 -17 17 -44 23 -61 7 -18 23 -83 36 -145 18 -91 22 -138 19
-229 -1 -63 -5 -124 -7 -135 -3 -11 -8 -45 -12 -75 -3 -30 -10 -71 -15 -90 -5
-19 -11 -53 -15 -75 -8 -56 -52 -218 -76 -279 -17 -43 -46 -97 -134 -248 -39
-67 -98 -156 -157 -235 -78 -105 -393 -427 -483 -495 -94 -70 -89 -70 -82 6 3
36 8 70 11 74 3 5 7 19 9 33 3 13 10 42 15 64 10 37 14 60 27 170 24 207 27
558 6 644 -32 128 -88 185 -279 281 -113 57 -192 123 -242 200 -37 58 -87 181
-96 237 -3 21 -8 41 -10 44 -4 6 -28 165 -39 249 -9 74 -19 126 -40 215 -12
45 -44 107 -74 138 -42 46 -95 68 -171 72 -177 8 -282 -96 -307 -305 -21 -175
12 -416 92 -670 92 -295 215 -479 438 -657 127 -101 149 -136 153 -238 3 -85
-40 -264 -111 -460 -100 -273 -246 -492 -496 -745 -63 -63 -125 -135 -138
-160 -37 -71 -48 -171 -43 -390 11 -467 5 -1093 -12 -1265 -9 -93 -19 -172
-22 -190 -2 -11 -6 -33 -8 -50 -25 -178 -84 -298 -281 -575 -84 -117 -112
-179 -118 -260 -8 -108 38 -225 116 -296 88 -79 194 -91 313 -35 83 39 207
159 283 276 135 207 265 519 297 715 4 19 8 42 9 50 2 8 6 40 10 70 3 30 9 71
12 90 4 19 7 319 8 665 1 573 3 634 19 670 24 56 62 92 120 114 274 103 852
475 1090 700 211 201 423 427 501 535 16 23 32 43 35 46 9 9 110 158 110 163
0 3 18 35 41 72 111 183 275 583 305 745 2 14 7 32 10 40 3 8 7 30 10 47 2 18
8 52 14 77 32 143 35 562 6 766 -53 372 -360 886 -646 1080 -111 75 -219 96
-318 61z"/>
<path d="M7852 6719 c-46 -10 -136 -36 -200 -58 -65 -22 -162 -52 -217 -66
-55 -14 -124 -37 -153 -51 -123 -58 -190 -172 -227 -384 -8 -48 -224 -892
-229 -898 -10 -9 -127 -21 -276 -27 -58 -2 -120 -9 -139 -14 -75 -23 -152 -98
-194 -189 -33 -71 -31 -189 4 -262 49 -103 130 -165 249 -189 36 -7 169 -10
385 -8 l330 3 50 26 c51 26 79 52 109 99 14 22 94 360 109 459 3 19 13 69 22
110 9 41 18 82 20 90 86 402 123 532 162 574 26 28 77 54 120 62 70 13 240 57
284 74 144 54 199 140 204 315 5 155 -53 264 -175 326 -56 30 -129 32 -238 8z"/>
</g>
</svg>
